<?xml version="1.0" encoding="UTF-8" standalone="no"?>
<!DOCTYPE svg PUBLIC "-//W3C//DTD SVG 20010904//EN"
              "http://www.w3.org/TR/2001/REC-SVG-20010904/DTD/svg10.dtd">

<svg xmlns="http://www.w3.org/2000/svg"
     width="6.5in" height="8.25556in"
     viewBox="0 0 585 743">
  <path id="Selection #1"
        fill="none" stroke="black" stroke-width="1"
        d="M 146.10,360.00
           C 148.63,368.12 147.64,372.17 147.09,380.00
             146.20,392.71 144.36,404.37 138.74,416.00
             136.44,420.78 130.76,432.46 125.91,434.40
             124.18,435.09 120.90,435.03 119.00,434.99
             97.61,434.51 78.90,428.59 70.46,407.00
             65.46,394.20 66.90,381.68 71.34,369.00
             73.25,363.56 77.09,356.16 82.04,353.00
             86.54,350.13 91.87,350.01 97.00,350.00
             105.73,349.99 124.07,351.99 127.00,341.00
             137.19,342.09 143.23,350.81 146.10,360.00 Z" />
</svg>
