<?xml version="1.0" encoding="UTF-8" standalone="no"?>
<!DOCTYPE svg PUBLIC "-//W3C//DTD SVG 20010904//EN"
              "http://www.w3.org/TR/2001/REC-SVG-20010904/DTD/svg10.dtd">

<svg xmlns="http://www.w3.org/2000/svg"
     width="12.5in" height="7.81944in"
     viewBox="0 0 900 563">
  <path id="Unnamed #2"
        fill="none" stroke="black" stroke-width="1"
        d="M 553.09,39.72
           C 553.23,39.42 611.10,87.09 610.04,89.39M 568.02,26.82
           C 566.62,30.01 608.45,87.23 610.48,87.53M 589.30,14.95
           C 587.62,15.45 606.55,88.13 610.83,86.85M 612.00,87.34
           C 614.13,88.61 684.77,45.99 684.20,45.65M 612.15,88.12
           C 612.93,90.58 692.79,62.28 692.39,61.01M 612.05,89.20
           C 613.79,89.31 698.79,86.74 696.48,86.60M 611.85,90.08
           C 612.13,91.83 677.81,109.53 677.45,107.28M 551.86,57.32
           C 551.90,57.31 610.61,89.12 609.22,89.62M 611.90,14.95
           C 610.23,14.97 605.47,85.36 611.39,85.27M 667.23,30.50
           C 667.29,31.77 612.91,91.87 612.61,85.37M 642.78,22.01
           C 642.91,22.51 611.86,86.59 611.68,85.89" />
</svg>
